<svg id="Logo_dark" data-name="Logo dark" xmlns="http://www.w3.org/2000/svg" viewBox="0 0 312.14 106.81"><defs><style>.cls-1{fill:#231f20;fill-rule:evenodd;}</style></defs><title>RG-Logo-Dark-b</title><path class="cls-1" d="M69,158c3.42,0,4.78-.72,4.78-4.7,0-3.82-1.36-4.62-4.54-4.62H64.37V158H69ZM53.7,148.7v-3.27H71.62c5.41,0,9.16,2.79,9.16,7.57,0,4.3-3.43,6.53-7.33,6.69v.08c3.42.16,6.45,1.2,6.77,4.7l.24,2.71c.16,1.59.63,2.47,2.71,2.47a9.91,9.91,0,0,0,2.15-.24v3.18a15.83,15.83,0,0,1-4.38.56c-3.27,0-7-1-7.33-4.7l-.32-3.82c-.24-2.71-1.83-3.35-4.62-3.35h-4.3v7c0,.72.48,1.2,2.07,1.2h2v3.26H53.7v-3.26h2c1.59,0,2.07-.4,2.07-1.2V149.82c0-.72-.48-1.2-2.07-1.2h-2Z" transform="translate(-53.7 -95.42)"/><path class="cls-1" d="M100.29,147.9c-6.05,0-7.57,3.67-7.57,11.23s1.52,11.23,7.57,11.23,7.57-3.66,7.57-11.23S106.34,147.9,100.29,147.9Zm0-3.5c8.2,0,15,5.73,15,14.65s-6.85,14.66-15,14.66S85.24,168,85.24,159.05,92.09,144.4,100.29,144.4Z" transform="translate(-53.7 -95.42)"/><path class="cls-1" d="M131.75,169.49c5.89,0,8.36-2.31,8.36-10.44s-2.39-10.43-8.36-10.43h-4.46v20.79h4.46Zm1.27,3.26h-16.4v-3.26h2c1.59,0,2.07-.4,2.07-1.2V149.82c0-.72-.48-1.2-2.07-1.2h-2v-3.26H133c8,0,14.34,5,14.34,13.69S141,172.75,133,172.75Z" transform="translate(-53.7 -95.42)"/><path class="cls-1" d="M164.25,169.49c5.89,0,8.36-2.31,8.36-10.44s-2.39-10.43-8.36-10.43h-4.38v20.79h4.38Zm1.27,3.26H149.11v-3.26h2c1.6,0,2.08-.4,2.08-1.2V149.82c0-.72-.48-1.2-2.08-1.2h-2v-3.26h16.41c8,0,14.34,5,14.34,13.69S173.49,172.75,165.52,172.75Z" transform="translate(-53.7 -95.42)"/><path class="cls-1" d="M200.88,155.47l.72.8a5,5,0,0,0,3.27-5.1,3.14,3.14,0,0,0-3.43-3.43c-2.23,0-3.26,1.28-3.26,2.95S199.05,153.48,200.88,155.47ZM205.74,169l-8.52-8.76c-1.91,1-2.47,2.55-2.47,4.94,0,3.26,2.23,4.86,6,4.86a10.92,10.92,0,0,0,5-1.12Zm2.23,2.15a17.19,17.19,0,0,1-8.12,2.23c-6.69,0-11.55-2.79-11.55-7.8,0-4.07,2.79-6,7-7.17L195,158a8.64,8.64,0,0,1-2.71-6.13c0-4.15,3.51-6.93,9.24-6.93,4.86,0,8.21,2.23,8.21,6.29s-2.87,6-6.22,7.09l6.93,7a6.5,6.5,0,0,0,1.44-3.83c0-.71-.32-1.19-1.92-1.19h-.79v-3H219v3h-1.35c-1.59,0-2,.4-2.15,1.59a11.15,11.15,0,0,1-2.95,5.66c1.52,1.43,2.47,2.15,4,2.15a8.94,8.94,0,0,0,4.23-1.52v3.19a11.45,11.45,0,0,1-6.53,2.07,9.28,9.28,0,0,1-6.3-2.23Z" transform="translate(-53.7 -95.42)"/><path class="cls-1" d="M249.15,163.75c0-.71-.48-1.19-2.07-1.19h-2.31v-3.27h14.66v3.27h-1.6c-1.59,0-2.07.4-2.07,1.19v9h-3.18l-1.44-3.9c-1.11,2.55-4.3,4.46-8.52,4.46-7.57,0-14.18-5.26-14.18-14.26A14,14,0,0,1,242.7,144.8a11.41,11.41,0,0,1,7.73,2.79l1.27-2.23h2.71v10.11H251.3c-.87-4-3.74-7.25-8.12-7.25-5.9,0-7.49,3.51-7.49,10.91,0,7.73,1.83,10.92,7.33,10.92,4.38,0,6.21-2.55,6.21-5v-1.12Z" transform="translate(-53.7 -95.42)"/><path class="cls-1" d="M283,149.9c0-.72-.48-1.2-2.07-1.2h-2v-3.27h11.55v3.27h-1.67c-1.6,0-2.08.4-2.08,1.2v13.3c0,6.61-4.69,10.19-11.86,10.19-6.77,0-12.59-2.79-12.59-10.59V149.9c0-.72-.48-1.2-2.07-1.2h-2v-3.27H273v3.27h-2c-1.59,0-2.07.4-2.07,1.2v12.9c0,4.38,1.84,7.25,6.38,7.25,4.69,0,7.64-2,7.64-7V150Z" transform="translate(-53.7 -95.42)"/><path class="cls-1" d="M316.45,149.9c0-.72-.47-1.2-2.07-1.2h-2v-3.27h11.79v3.27h-2c-1.6,0-2.07.4-2.07,1.2v22.93H315.9l-16.33-20.94v16.48c0,.72.48,1.2,2.07,1.2h2v3.26H291.84v-3.26h2c1.6,0,2.07-.4,2.07-1.2V149.9c0-.72-.47-1.2-2.07-1.2h-2v-3.27h11.07l13.46,17.69V149.9Z" transform="translate(-53.7 -95.42)"/><path class="cls-1" d="M350.22,149.9c0-.72-.47-1.2-2.07-1.2h-2v-3.27H358v3.27h-2c-1.59,0-2.07.4-2.07,1.2v22.93h-4.22l-16.33-20.94v16.48c0,.72.48,1.2,2.07,1.2h2v3.26H325.61v-3.26h2c1.6,0,2.07-.4,2.07-1.2V149.9c0-.72-.47-1.2-2.07-1.2h-2v-3.27h11.07l13.46,17.69V149.9Z" transform="translate(-53.7 -95.42)"/><path class="cls-1" d="M183.68,118.12c-.16,0-.72.16-.8.31s.4-.08.56-.08.4,0,.48-.15-.08-.08-.16-.08h-.08ZM174.28,136a1.61,1.61,0,0,1-.87,0c-.08-.08-.16-.16,0-.16a3,3,0,0,1,.87,0c.08,0,0,.16-.08.16h.08Zm69.53-.64c.08-.16.16-.24.48-.24.16,0,.4.08.4.24s-1,.24-.88,0Zm-40.14-.24a3.14,3.14,0,0,0,1.67-.56c.32-.24.72-.71.56-.79-.32-.16-2.23,1.27-2.23,1.27h0Zm-12.18-1.27a11.6,11.6,0,0,0-2.55,1.67c-.08.16-.16.32,0,.24.32-.16,2.23-1.28,2.47-1.44s.31-.47.08-.47Zm41.81-1c.16-.16-.32-.16-.48-.08s-1.35.88-1.11,1,1.35-.64,1.51-.88h.08Zm-51.21,1.35c-.24.16-.64.08-.32-.39s.16-.72-.4,0c-.24.31-.48,1.51-.08,1.35s.4.08-.16.48-1.35-1.52-2-2.07c-.88-.8.24,1.43-.24,1.35s-1.75-1.35-1.83-1.11,1.75,1.83,1.19,1.91-2.78,0-3.18,0-.64.16-.24.24,2.87-.08,3.27.24,3.5.08,3.74.15.32.64.64.32a15.3,15.3,0,0,1,1.83-1.59c.56-.32-.24,1.27-.24,1.51s.24.08.48-.31,1.35-3,1.43-3.35,0-.48-.64.48a5.23,5.23,0,0,1-1.91,1.59c-.64.24.56-2.31.32-2.47s-1.11,1.2-1.67,1.59h0Zm48-4.69c-.07.15.16.39.32.55s1.12,2.31,1.68,2.31-.08-.63.16-.95c.08-.08.39-.08.31-.24s-.39.08-.87-.08a1.18,1.18,0,0,1-.64-1.28c.16-.39-.88-.39-.88-.24h0Zm-18.39-.4c-.24-.16-1.2,1.59-1.68,1.91s-2.07,1-1.91,1.27,2.39-1,2.71-1.27,1.35-1.67.88-1.91Zm-19.68-1c-.32-.16-.39,1.91-.47,2.87,0,.16.15.56.39.48.4-.16-.08-1.84.56-2.39.08-.08-.24-.8-.4-.88h0Zm20.71-.16h-.16c-.24.08-.56.4-.48.64s1-.56.72-.64h-.08Zm.72-.95c-.08-.08-.4.24-.32.39s.56-.15.56-.23-.16-.08-.24-.16Zm16.8-.8c-.39,0-.08,1.11.32,1.11.08,0,.08-.15,0-.23-.08-.32,0-.88-.32-.8h0Zm-16.48-.08c-.16.08,0,.32.16.48s.32-.16.55-.08.16.4.32.4H215c.24-.08.24-.48.24-.72-.08-.56-1.19-.24-1.51-.08h.08Zm14.49-1.75v.08c0,.08-.32.08-.4-.08v-.16c.08-.08.4,0,.4.16ZM180,121.06c-.08,0-.16.08-.24.16-.56.4,2,1.52,1.51,1a1.63,1.63,0,0,0-.56-.48c-.24-.24-.32-.56-.71-.64h0Zm9.79-.16c-.08.64.24.64.32,1,.4,1.83,1,3.19,1.28,4.94a15.88,15.88,0,0,1-.08,3.34,7.57,7.57,0,0,1-.32,2.15c-.24.56-1.36,1.2-1.67,1.44-.72.71-2,1.75-1.84,1.83s.64-.4,1.12-.8a6.07,6.07,0,0,1,1.27-.95,9.63,9.63,0,0,0,2.39-1.68c.32-.47.88-1.11.56-1.51-.48-.56.24-1-.08-1.67-.08-.16.08-.56.08-.8-.16-.72,0-1.27-.16-1.19-.32.08-.48.71-.72.47-.39-.47.48-.71.08-1.19s-.79-.48-.63-1.51c.08-.4-.24-.56-.16-.88s.47-.4.32-.56-.8.08-1-.55.48-.56.48-.88-.48-.4-.64-.72.32-.71.08-.79-.72.31-.72.55h.08Zm28.28-.24a.24.24,0,0,0,.4.16.29.29,0,0,0,.08-.24c-.08-.15-.4-.07-.48.08Zm2.23-.23c.16.08.08.15.08.23h-.32c-.08-.08-.08-.23,0-.23s.16,0,.24.08h0Zm5.33,2.39c.08-.16-2.94-2.63-3.9-4.31-.16-.31-.4-.47-1-.47-.32,0,1.83,2.39,2.7,3.18a13,13,0,0,0,2.31,1.6h-.08Zm-44-5.58.24.24c.16.08.32-.08.4-.24s-.72-.24-.64,0Zm3.42-1.12v.08c0,.24-.63.4-.71.08s.63-.47.71-.16Zm29.39.16c-.08.16-.23.16-.39.08a.29.29,0,0,1-.08-.47c.24-.08.55.16.47.39Zm-1.83-.47c-.48.08-.24.39-.08.63s1,.4,1,.16-.4-.79-.88-.79Zm-20.79.16c0,.15.64,0,.72-.16s-.72-.08-.72.16Zm1.68-.56c-.08.08.24.48.32.56s.47.08.47-.08-.71-.64-.79-.48Zm-6.61.24c-.08.24-.24.24-.56.32a.61.61,0,0,1-.32-.16c-.24-.24,1-.4.88-.08h0Zm33,0a.24.24,0,0,1-.32,0c-.16-.08-.24-.32-.08-.4s.56.32.4.4Zm-10.35-1c.08.24-.64.4-1,.4-.16,0-.16-.16-.16-.24,0-.32,1-.4,1-.16h.08Zm3.26-.4a.61.61,0,0,0-.16.32.8.8,0,0,0,.8.4.24.24,0,0,0,.16-.32c-.16-.32-.64-.64-.8-.48h0Zm-6.37.16c0,.32-.8.4-.72.16,0-.08,0-.08.08-.08.16-.24.56-.32.64-.08v.08h0Zm-9.08-.24c.08.24.48,0,.64-.08s.08-.24,0-.24c-.24-.08-.72.08-.64.32Zm6.85-.4c.24.32-.88.48-.88.24v-.16c.24-.23.72-.31.88-.08Zm13.54.16c.16-.16-.24-.55-.4-.39s.24.55.4.39Zm1-.47v.08c0,.16-.15.16-.23.08s-.16-.16-.16-.24.32,0,.39.16h0Zm-10.51-.08c-.16.08-.24.16-.16.32a.5.5,0,0,0,.56.23c.16,0,.32-.08.32-.16.08-.23-.48-.47-.72-.39Zm1.36-.48a.49.49,0,0,0-.08.48,1.76,1.76,0,0,0,1.19.63c.16,0,.24-.08.24-.16.24-.31-1.2-1.11-1.35-1Zm-2.08.4c0,.08.08.16,0,.16-.15.16-1.43.16-1.27-.32.08-.32,1.12-.16,1.27.08h0Zm-2.23-.48a.34.34,0,0,1-.47.16.17.17,0,0,1-.16-.16c-.08-.24.71-.24.63,0Zm3.35-.4c0,.16-.24.16-.48.08-.08,0-.08-.16,0-.16s.48-.08.48.08Zm-13.62.08q0,.12-.24.24c-.16,0-.56-.24-.4-.48s.72,0,.64.24Zm-12.74-.16a.29.29,0,0,1-.08.24c-.08,0-.56,0-.56-.24s.64-.08.64.08h0Zm34.64,0v.08c-.08.24-.79-.16-.63-.4s.71,0,.63.32Zm-33.05-.56a.5.5,0,0,1-.64-.08c-.16-.16.16-.23.16-.23.24,0,.72.15.48.39h0Zm30.9-.87a.62.62,0,0,1-.87.08.36.36,0,0,1-.16-.48c.24-.4.63,0,.87,0s.24.16.16.32h0Zm-27.71-.88v.16c-.08.16-.24.08-.4,0a.15.15,0,0,1,0-.24c.08-.08.32,0,.4.08Zm1.43-.08v.16a.23.23,0,0,1-.4,0c-.16-.16-.16-.32,0-.4a.31.31,0,0,1,.4.24Zm1.91-.16v.24c-.16.4-1.11.16-1-.24a.62.62,0,0,1,.32-.32.49.49,0,0,1,.72.32h-.08Zm-7.73-.08c.08.32-.47.24-.63.08s-.24-.24-.08-.4.64,0,.71.32Zm26.29-.87c0,.08.08.24-.08.32s-.64-.32-.4-.48a.31.31,0,0,1,.48.16Zm2.55-.32c-.24-.16-.72-.24-.8-.16s-.08.24.08.4.8.24.88.08-.08-.24-.16-.32Zm-24.22-.72.16.16a1,1,0,0,0,1.12.16c.08-.08,0-.24-.08-.32-.24-.4-1.43-.4-1.2,0Zm21.35-.8c-.08.08-.16.24-.08.32s.64.16.72.08v-.16c0-.31-.56-.39-.72-.24h.08Zm1.67-.63a.22.22,0,0,0,.16.32c.08,0,.16,0,.16-.08a.29.29,0,0,0-.08-.24.15.15,0,0,0-.24,0Zm-21.1,0c0,.24-.48.32-.64.16s-.08-.08-.08-.16c-.08-.24.32-.4.48-.32s.32.16.24.4h0Zm-26.53-2c-.16-.16-.4,0-.32.24s.56.31.56.23-.08-.31-.24-.39h0Zm25.41.16a.35.35,0,0,0,.56.08c.08-.08.08-.16.08-.32s-.72-.08-.64.16h0Zm-1.51-.32c.16.32-.48.71-.72.48a.35.35,0,0,1-.08-.4c.08-.32.72-.4.8-.08Zm-2-1.52c-1-.24-2.07-.79-3.19-.31a3.31,3.31,0,0,1-1.59,2.78c-.8,1.83-2.63-.24-3.75,1.12-.16.24-.31.48,0,.71s.4-.07.64-.15c.72-.32.24.79.56,1,.95.72.24,1.83,1.51,2.15.48.08-.32.48-.56.8-.31.48.64,1.11,1.2,1.43.24.16.64,0,.8-.4s.79.32,1,.72c.32.8-1.83.24-1.59.56.08.16.56,0,.79.16.48.16,1.28.55,1.6.16s.4,1,1.11.71a4,4,0,0,1,2.87,0c.64.32.24.4-.16.32a3.58,3.58,0,0,0-1.75.16c-1.2.48-2.47,1.67-3.43,2.15a9.7,9.7,0,0,0-2.31,1.2,1.28,1.28,0,0,0-.31,1.27c.08.16-.24.16-.16.48s.55.4.71.64.08.47.16.63.4.16.56.08a.81.81,0,0,0,.24-.79c-.08-.16-.32-.08-.24-.24a3.12,3.12,0,0,0-.16-1.12c-.08-.4,1.83-1,2.87-.71,1.67-1.52,5.1-1.84,5.73-2.39.88-.72.4.16.32.31a2.48,2.48,0,0,1-.95.8c-.24.88-1.36.8-2,.8-.31,0-.31.24-.39.24-.32.24-.88.31-.4.31,1.19.16,6.21-2.07,6.29-2.54a5.73,5.73,0,0,0-.48-2.63,7.26,7.26,0,0,0-.56-1.12q-.12-.36.48-.24c.4.08.64-.24.48-.55-.08-.16.56-.8,1-.56.31.16.08.32.15.48.24.32-.23,1.19-.79,1.27-.16,0,0,.32.24.32s.63-.08.87-.08.8.72,1.12.08c.16-.32.56.32.72.56.55,1,1-.56,1.75-.16.16.08.48.16.4.4a.54.54,0,0,1-.64.23,1.3,1.3,0,0,0-1.28.72c-.16.48.8.88,1,.48s-.4-.32-.24-.48a2.19,2.19,0,0,1,1.59-.48.55.55,0,0,1,.56.56c0,.4-.95.08-.95.4s.23.48.55.56.56,0,.64-.48c.16-.64,1-.72,1.51-1.28.8-.87.8.88,1.44.64.08,0,0-.32,0-.32.16-.24.32-.16.56-.16.79-.08,1.51-.79,1.83-.16.63,1.28,2.47-.79,3.1.88.32.8,1.68-1.19,2.55-.56.16.32-.24.48-.4.64-.31.4,1.68.8,2.07.08s1.28.56,1.68-.4c.08-.32.55.24.63.4s0,.4-.16.48a1.15,1.15,0,0,1-.55-.16c-.16-.08-.16.32,0,.56s.48.16.71.24.16.55.8.71c1,.24,1.83,1.28,1.91,1.12.24-.4.56-.8,1-.64.16.08.48.24.4.56-.08.08-.16.16-.24.16s-.72.08-.56.47.8-.47,1.35-.07c.24.15,0-.48.32-.64s1,.56,1,.71c0,.32-.32.24-.4.4s.64,1.12.8,1.28.87-.16,1.11.32-.56.63-.56.79c0,.72.8.32,1.12.88.24,1.11,1.19-.24,1.51.16.48.48-.71.71-.24.79s1.91,1,2.47.64c.32-.24.4-.16.56-.08.32.24-.56.56-.32.8s.8-.32,1-.16c.32.24,0,.48.16.64s.39-.08.71.31.8,1,1.36,1,.63.32.79.56,1.6,1.91,1.84,2.23.39-.32.15-.72-.08-1.43-.39-1.43-.24.4-.56.4-.24-1.12-.32-1.28.16-.24.24-.48.24-.71.4-.79.4.08.55.24.48,0,.08-.32-2.46-1.2-3.5-1.91a22.79,22.79,0,0,1-4-4.3,9.2,9.2,0,0,1-1.52-2.71c-.47-1.36-1.59-3-2.15-2.95s-.55-1-1.27-.88c-.56,0-.56-.55-.8-1-.4-.72-2-1.2-3.1-1.51a2.85,2.85,0,0,1-1.44-1.68c-.16-.4-.55-.32-.63-.55s.23-1-.16-1.28a13,13,0,0,0-3.59-.4,14.4,14.4,0,0,0-2,0c-.64.24.48,1.12.32,2.07s-.88,1.36-1.59,3.43-4.86,2.39-6.06,1.83c-1.59-.72-4.46-.48-5.65-3.11-.48-1.11.08-1.83.32-2.7.71-3-4.54-3-6.14-3.91a7.61,7.61,0,0,0-2.15-.4h0ZM166,100.67c-.64,1-4.62,1.44-4.54,1.91s-.16,2.39,1.19,3a4.9,4.9,0,0,0,2.39.4c.64-.08,1.12-.8,1.52-1.35.24-.32.87-.08,1.19.23,0,.72.72.48,1,.48s.47-.24.24-.48-.88-.23-1.36-.39c-.64-.32-.16-1.12-.8-1.44s.72-1,.88-1.43c.48-1.2-1.19.08-1.43-.32-.08-.16.08-1.19-.32-.56Zm59.73-2.39c-.08-.24-.71.4-1.59,1-.72.48-1.27.8-1.59,1-.16.08.4.48,1,.16a17.4,17.4,0,0,0,2.79-1.91c.08-.16-.32.16-.56-.24h-.08Zm3-1.91c-2.71,4.62-8.76,5.34-11.71,10-.24,1.83,2.79,2.71,3.43,5.41.08.48.48,1.2.79,2.23a27.2,27.2,0,0,0,3,5.74c2.15,2.71,4.54,4.14,5.81,4.38.72.16,1.12,2.55,1.36,3.26a24.56,24.56,0,0,0,1.75,3.75c.48.4.48.87.72,1.11.32.4.56.8.08,1.28-.08.08,0,.32.32.24a4.84,4.84,0,0,0,.87-.24c.64-.16.56.24,1.28.24.24,0,0,.47-.24.87s1.59-.08,2.15.56,2.55.16,2.95.08c1.19-.24,1.59-.08,1.67.08s-.4.32-1.12.32-2.94.64-4.22.16c-.87-.32-1.43.55-2.31.79s1.2-1.11,0-1.35-2.63.72-4.14.24c-.64-.16-1.67.87-2.79,1.27-.48.16-1.11,0-1.19-.24-.32-.63.4-.87-.32-1a7.12,7.12,0,0,0-3.27.95c-.55.32-.55.08-.24-.31s.8-1,.56-1c-1-.16-1.75,1-2.63,1.27a2.4,2.4,0,0,1-1.91,0c-.24-.23.72-1.43.24-1.11a5.37,5.37,0,0,1-1.27,1c-.56.23.24-.64-.08-.56-.48.08-1,.63-1.44.71s1.52-2,.32-1.27a10.94,10.94,0,0,1-3,1.35c-.56,0,.55-1.11.71-1.35.48-.72-3.9,1.75-4.38,1.35-.24-.23.64-1,1.67-1.59a11.62,11.62,0,0,1,1.44-.87,14.69,14.69,0,0,0,1.75-1.44c1.12-.64-.32.8.24.72s3.11-1.12,2.55-.56c-.32.32-2,1.28-1.44,1.2s3.83-.88,3.59-.32.79-.08,1.11-.24-1,1.59-.63,1.51c.71-.08,1.27-1.75,2.31-1,1.43.39,2.7-.64,4.06-.32,0,.48-.64.55-.8.87.32.4.56.08,1,.16.63-.32.4-1.75,1.27-1.27v.79h.24s1.91-1.59,2-2c.08-.87-1.91-4-3.66-5.41-4.14-3.19-9.16-4.06-12.91-7.73a.69.69,0,0,0-.71.32c-.16.88.48,1.43,1.11,2,1.28,1.28,3.67,3,3.83,3.19s.47.55.08.79-4.86,3.43-6.77,5.82c-.24.32.55.16.63.24.08.24-2.23,1-3.26,1.67a5.12,5.12,0,0,0-1.12,1.11c.16.4.48.08.64-.07,1-1.44,3.34-1.52,3.82-2.08.64-.87.64-.39.32.08-.16.24-.32.64-.08.72s.72-.24.64,0-.32.32-1,.64-3.42,3.18-3.58,3.18-.24-.55.72-1.35c.55-.4,1.27-1.35,1.11-1.35a4.17,4.17,0,0,0-1.75,1.43,2.62,2.62,0,0,1-1.43.88,10.59,10.59,0,0,1-2.39.47c-.4-.08.15-.95-.16-1a6.74,6.74,0,0,0-3.19.87,3,3,0,0,1-1.35.32c-.56,0-.4-.24,0-.24a1.92,1.92,0,0,0,1.35-.79,4.72,4.72,0,0,0-.64.32s-.79.47-.39-.24A13.59,13.59,0,0,0,202,134.6c.88-1.11,1.91-2.39,2.39-2.86.72-.72.87-.72.72-.4-.4.63-1.6,1.83-1.76,2.63a6.62,6.62,0,0,0,2.31-1c.8-.32.88,0,1-.24a4,4,0,0,1,.64-.72,4.3,4.3,0,0,1,1.83-1.11c.63-.08,3.82-5,3.74-4.86a3.63,3.63,0,0,0,.24-.64c-.72-2.39-3.11-2.78-5.1-4.14-2.31-1.59-3.34-2.47-3.18-4.62a.48.48,0,0,0-.08-.32.61.61,0,0,0-.4-.16c-3-.55-4.3,1.2-7.57,2.31-1.27.4-2.94,1-3,1.92,0,.39,0,3.1-.16,4.85-.16,2,.08,5.34.08,5.82a3.91,3.91,0,0,1-.88,1.91c-.24.24-.16.56.4.56s1,.24.56.4c-.64.23-1.6,1-1.36,1.11s1.44-.32,1.83.08,1.76-.8,2.55-1.43,1.28-1.12,1.44-1.28c1-.71.63-.16.23.24s-1.27,1.28-1.51,1.59-.32.72.16.24a8.45,8.45,0,0,1,2.55-1.83c.64-.16-.48.56-.88,1.2a.58.58,0,0,0-.08.71c.16.24,1,.16,1.36-.08a27.87,27.87,0,0,0,3.42-3.1c.72-.88.56-.32.32.08s-.24.39-1,1.43a22.23,22.23,0,0,1-3.67,3.66c-.32.16-.95.72-.32-.23.4-.48.64-1,0-.88a30.14,30.14,0,0,0-3.18,1.59c-.56.24.71-1.27.71-1.67S193,137.79,193.4,137c.16-.32.95-1,.24-.63-.32.15-1.68.23-1.84,0s-.63.47-1.19.71,1.35-1.91.88-1.67-.64.32-1.44.64c-1,.39-1.67.79-2.47.47-.32-.15-.08-.31-.08-.47s-.32.24-.63.24-.64.31-1,.39-.32-.39-.08-.71,1-2.23,1.35-2.79.48-.24.32.16a10,10,0,0,0-.55,1.91c0,.16.16.08.31-.08a11.19,11.19,0,0,1,1.92-2.31c.39-.24.63-.08.79-.16s.32-.16.56-.8a12.2,12.2,0,0,0,.48-4.14,16.09,16.09,0,0,1-.16-1.67c-.4-2.07-1.67-5-1.91-6-.08-.48-2.15-1-2.87-1.12s-4.54.24-4.94.88,1.75,1.11,2.31,1.43c1-.48,2.79.24,3,1,.4,1.35.48,1.59-1.28,1.83a5.54,5.54,0,0,1-2.78-.48,16.22,16.22,0,0,1-5.18-3.26,3.08,3.08,0,0,1,.88-3.27c.79-.4,2.07-.8,2.3-1s.16-.23,0-.47-2.62-2.23-2.7-3.91c-.08-1.11.32-2.07-.88-3.1-.64-.48-1.59-1.44-2.39-1.2,0,.32-1.27,1.68-2,1.2a8.8,8.8,0,0,1-1.75-2.15c-2.95-1.52-5.82,1-8.68-.48a3.78,3.78,0,0,1-1.76-1.91,2.92,2.92,0,0,1-.95-1.44c-.08-.79,1.43-.63,2.39-1.19,1.35-.48,3.58-.72,3.9-1.91.24-.8,4-2,6.29-2.15a4.79,4.79,0,0,1,3.83,1.83c2.46,1,3.74,1.83,6.05,2.15a20.29,20.29,0,0,1,2.55.4c1.19.4,2.71.63,4.14,1.19a27.2,27.2,0,0,1,4.7,1.2,11.17,11.17,0,0,0,3.5.63c.56-.08,5.1-.23,8.05-.23a85.66,85.66,0,0,1,9.4.63c2.23-1.35,4.3-3.34,6.69-4.38,2.94-1.27,5.41-3.5,8-5.41a.25.25,0,0,1,.16-.08c.24,0,.24.39,0,.87h0Z" transform="translate(-53.7 -95.42)"/><path class="cls-1" d="M357.15,168.85a4.15,4.15,0,1,1,4.14,4.14,4.41,4.41,0,0,1-2.94-1.19,4.09,4.09,0,0,1-1.2-3Zm8.68.72v-1.44a4.57,4.57,0,0,0-4.54-3.9,4.62,4.62,0,0,0-3.26,7.89,4.53,4.53,0,0,0,3.26,1.35h0a4.68,4.68,0,0,0,3.27-1.35A4.53,4.53,0,0,0,365.83,169.57Z" transform="translate(-53.7 -95.42)"/><path class="cls-1" d="M360.34,168.61h1.35c.32,0,.72-.08.72-.63.08-.72-.4-.8-.72-.8h-1.35Zm-.56-1.91h1.83c.64,0,1.28.08,1.28,1a1.08,1.08,0,0,1-.56,1c.4.24.48.4.48,1,0,.48,0,.71.24.87v.16h-.64a1.19,1.19,0,0,1-.08-.48c-.08-.47.16-1.27-.64-1.27h-1.35v1.75h-.56V166.7Z" transform="translate(-53.7 -95.42)"/><path class="cls-1" d="M233.46,117v-3.5h-1.11V113c1-.16,1-.24,1.27-1h.4V117Z" transform="translate(-53.7 -95.42)"/><polygon class="cls-1" points="187.49 18.96 187.49 17.68 187.49 17.68 185.98 19.83 187.49 19.83 187.49 18.96 188.13 18.96 188.13 19.83 188.84 19.83 188.84 20.47 188.13 20.47 188.13 21.58 187.49 21.58 187.49 20.47 185.42 20.47 185.42 19.75 187.65 16.65 188.13 16.65 188.13 18.96 187.49 18.96"/><path class="cls-1" d="M245,116.52a1.05,1.05,0,0,1-1-1,1,1,0,0,1,1-1c.4,0,1,.08,1,1a1,1,0,0,1-1,1.11v.56a1.55,1.55,0,0,0,1.59-1.67,1.53,1.53,0,0,0-1.51-1.6c-.64,0-.8.24-1.2.56,0-.64.16-1.83,1.2-1.83a.79.79,0,0,1,.8.72h.63a1.37,1.37,0,0,0-1.27-1.28c-1.67,0-1.83,1.6-1.83,2.71s.24,2.39,1.59,2.39v-.56h0Z" transform="translate(-53.7 -95.42)"/><path class="cls-1" d="M236.57,112.54a1.05,1.05,0,0,1,1,1,1,1,0,0,1-1,1c-.4,0-1-.08-1-1,0-.72.4-1.12,1-1.12v-.56a1.55,1.55,0,0,0-1.6,1.68,1.54,1.54,0,0,0,1.52,1.59c.63,0,.79-.24,1.19-.56,0,.64-.16,1.91-1.19,1.91a.79.79,0,0,1-.8-.71h-.64a1.38,1.38,0,0,0,1.28,1.27c1.67,0,1.83-1.67,1.83-2.71s-.24-2.39-1.59-2.39v.56Z" transform="translate(-53.7 -95.42)"/><polygon class="cls-1" points="111.51 22.3 112.14 22.3 112.14 22.94 111.51 22.94 111.51 22.3"/><path class="cls-1" d="M161.46,115.65v2.15h1.35a1,1,0,0,0,.48-.08,1.28,1.28,0,0,0,.56-.72,2.59,2.59,0,0,0,.16-1,3.62,3.62,0,0,0-.24-1.28,1.21,1.21,0,0,0-1.12-.64h-1.19v1.52h-.64v-2.07h1.83a1.9,1.9,0,0,1,1.92,2,3.16,3.16,0,0,1-.48,2.15,1.5,1.5,0,0,1-1.12.71h-2.15v-2.7h.64Z" transform="translate(-53.7 -95.42)"/><polygon class="cls-1" points="97.81 18.16 101.07 18.16 101.07 18.72 98.36 18.72 98.36 20.23 100.99 20.23 100.99 20.79 98.36 20.79 98.36 22.38 101.23 22.38 101.23 22.94 97.81 22.94 97.81 18.16"/><path class="cls-1" d="M157.87,115.81h2v2.54h-.4l-.16-.55a2.35,2.35,0,0,1-1.67.71,1.89,1.89,0,0,1-1.28-.47,2.66,2.66,0,0,1-.87-2,2.72,2.72,0,0,1,.87-2.08,2.81,2.81,0,0,1,1.51-.47,4.05,4.05,0,0,1,1,.16,1.63,1.63,0,0,1,1,1.35h-.64c0-.4-.48-1-1.36-1a1.76,1.76,0,0,0-1.19.48,2.33,2.33,0,0,0,0,3,1.62,1.62,0,0,0,1.19.48,1.19,1.19,0,0,0,.8-.24,1.39,1.39,0,0,0,.64-1.36h-1.44v-.63Z" transform="translate(-53.7 -95.42)"/><path class="cls-1" d="M147.44,114.77v-.64H149c.4,0,1,.08.88.88-.08.64-.48.72-.88.72h-1.51v-1h-.64v3.58h.64v-2.07H149c1,0,.72.88.8,1.44a2.32,2.32,0,0,0,.16.63h.72v-.15c-.24-.16-.24-.4-.24-1,0-.8-.08-.88-.56-1.19a1.18,1.18,0,0,0,.64-1.2c-.08-1.11-.8-1.19-1.52-1.19h-2.15v1.19h.64Z" transform="translate(-53.7 -95.42)"/><polygon class="cls-1" points="83.39 106.81 76.78 97.73 76.78 106.81 74.47 106.81 74.47 94.06 76.78 94.06 83.31 102.91 83.31 94.06 85.54 94.06 85.54 106.81 83.39 106.81"/><polygon class="cls-1" points="90.96 106.81 90.96 94.06 99.72 94.06 99.72 96.06 93.19 96.06 93.19 99.32 99.56 99.32 99.56 101.31 93.19 101.31 93.19 104.9 99.72 104.9 99.72 106.81 90.96 106.81"/><polygon class="cls-1" points="114.45 106.81 111.98 97.41 109.52 106.81 107.13 106.81 103.46 94.06 105.93 94.06 108.48 103.86 111.11 94.06 112.86 94.06 115.49 103.86 118.04 94.06 120.51 94.06 116.84 106.81 114.45 106.81"/><polygon class="cls-1" points="131.82 106.81 131.82 104.97 138.27 96.06 131.82 96.06 131.82 94.06 141.22 94.06 141.22 95.9 134.68 104.9 141.37 104.9 141.37 106.81 131.82 106.81"/><polygon class="cls-1" points="146.23 106.81 146.23 94.06 154.99 94.06 154.99 96.06 148.46 96.06 148.46 99.32 154.84 99.32 154.84 101.31 148.46 101.31 148.46 104.9 154.99 104.9 154.99 106.81 146.23 106.81"/><path class="cls-1" d="M218.73,191.71l-2.31,6H221Zm3.9,10.51-1-2.47h-5.89l-1,2.47h-2.55l5-12.74h2.79l5,12.74h-2.47Z" transform="translate(-53.7 -95.42)"/><polygon class="cls-1" points="175.38 106.81 175.38 94.06 177.61 94.06 177.61 104.9 183.27 104.9 183.27 106.81 175.38 106.81"/><path class="cls-1" d="M246.68,191.71l-2.31,6H249Zm3.9,10.51-1-2.47h-5.9l-.95,2.47h-2.55l5-12.74H248l5,12.74h-2.47Z" transform="translate(-53.7 -95.42)"/><polygon class="cls-1" points="212.34 106.81 205.73 97.73 205.73 106.81 203.5 106.81 203.5 94.06 205.73 94.06 212.26 102.91 212.26 94.06 214.57 94.06 214.57 106.81 212.34 106.81"/><path class="cls-1" d="M282.76,195.85a4.09,4.09,0,0,0-4.38-4.38h-2.55v8.84h2.55A4.2,4.2,0,0,0,282.76,195.85Zm-9.16,6.37V189.48h4.78c4,0,6.69,2.63,6.69,6.37s-2.71,6.37-6.69,6.37Z" transform="translate(-53.7 -95.42)"/></svg>