<svg width="1111" height="374" viewBox="0 0 1111 374" fill="none" xmlns="http://www.w3.org/2000/svg">
<path d="M1190.29 166.429C1190.29 166.412 1190.29 166.398 1190.29 166.38C1190.28 166.384 1190.26 166.384 1190.25 166.386C1190.26 166.406 1190.28 166.41 1190.29 166.429ZM275.598 11.9448C275.926 11.6748 276.263 11.4331 276.598 11.1935C276.21 11.3783 275.875 11.626 275.598 11.9448ZM1248.35 236.963C1248.53 236.09 1248.72 235.238 1248.89 234.365C1248.36 235.116 1248.19 235.928 1248.35 236.963ZM1245.34 243.115C1245.2 243.257 1245.09 243.44 1245.05 243.704C1245.08 243.623 1245.12 243.542 1245.15 243.46C1245.21 243.339 1245.27 243.217 1245.34 243.115ZM1254.95 218.365C1254.85 220.68 1253.67 222.73 1253.86 225.147C1253.91 225.776 1253.25 226.324 1252.54 226.202C1252.52 226.142 1252.51 226.081 1252.49 226.04C1252.1 226.507 1251.71 226.994 1251.32 227.482C1251.02 228.294 1250.44 229.106 1250.45 229.918C1250.45 230.426 1250.42 230.913 1250.35 231.42C1250.42 231.928 1250.31 232.375 1250.09 232.781C1249.64 234.771 1248.91 236.679 1248.68 238.689C1248.78 239.339 1248.77 239.968 1248.65 240.557C1248.67 240.862 1248.68 241.166 1248.73 241.491C1248.8 241.877 1248.15 242.445 1247.75 242.953C1247.94 243.257 1247.95 243.562 1247.76 243.846C1246.06 245.044 1245.53 246.445 1247.08 248.374C1247.82 249.308 1249.88 249.876 1248.83 251.42C1247.74 253.024 1247.19 255.48 1245.02 256.008C1241.77 256.78 1241.09 259.277 1243.2 262.323C1244.86 264.698 1244.34 267.297 1241.99 268.109C1241.34 268.332 1240.6 268.15 1239.92 268.272C1234.78 269.165 1229.26 265.774 1224.44 270.221C1224.25 270.403 1223.84 270.342 1223.56 270.261C1219.63 269.246 1215.62 269.51 1211.65 269.104C1203.92 268.312 1196.19 267.622 1188.39 267.764C1180.61 267.926 1172.9 269.124 1165.14 269.53C1164.76 269.652 1164.39 269.835 1164.01 269.916C1154.94 271.439 1145.88 272.962 1136.81 274.505C1135.9 274.667 1134.63 274.464 1134.82 276.352C1134.97 277.814 1135.56 278.626 1136.94 278.728C1139.02 278.85 1141.09 279.276 1143.17 279.459C1144.43 279.54 1144.93 280.149 1145.49 281.57C1146.75 284.677 1147.47 288.149 1149.76 290.666C1151.64 292.737 1150.33 297.894 1147.92 298.971C1145.17 300.189 1142.05 299.031 1139.41 300.879C1137.4 301.996 1136.48 304.067 1135.29 306.219C1133.16 310.097 1129.3 312.066 1126.32 315.031C1125.44 316.411 1123.65 317.366 1125.35 319.68C1126.03 320.594 1124.97 321.304 1124.23 322.035C1122.18 324.066 1119.09 323.335 1117.35 325.812C1115.21 328.817 1112.57 329.345 1109.42 329.324C1106.88 329.304 1104.65 327.903 1102.28 327.822C1095.7 327.578 1089.14 328.39 1082.59 329.142C1080.94 329.324 1079.81 330.157 1079.98 332.187C1080.21 334.888 1078.94 335.72 1077.12 336.167C1075.77 336.512 1074.41 336.837 1073.09 337.304C1069.94 338.4 1067.06 339.09 1065 343.354C1063.23 347.009 1059.24 349.181 1056.23 352.003C1055.3 353.384 1053.56 354.359 1055.08 356.734C1055.78 357.81 1054.9 358.46 1054.07 359.15C1052.08 360.795 1049.26 360.572 1047.68 362.622C1045.54 365.424 1042.83 366.297 1040.03 366.845C1016.14 371.454 992.019 372.652 967.877 373.038C943.027 373.444 918.174 373.343 893.323 372.835C870.459 372.368 847.618 373.525 824.766 373.911C793.222 374.459 761.694 372.287 730.165 372.47C696.335 372.652 662.508 373.505 628.677 372.591C607.53 372.003 586.402 370.135 565.24 370.723C545.089 371.272 524.946 372.754 504.797 372.896C459.483 373.241 414.172 373.444 368.853 372.977C308.774 372.368 248.692 372.652 188.656 369.14C169.626 368.043 150.524 368.531 131.577 365.647C120.113 363.901 108.706 361.587 97.2188 360.125C92.3426 359.516 89.1808 356.267 87.505 351.922C86.112 348.308 84.6254 347.131 81.6627 347.11C80.3959 347.11 79.1298 346.562 77.8642 346.258C76.7418 345.973 75.8464 345.161 76.2581 343.801C77.3271 340.288 75.4254 340.166 73.411 339.903C66.1803 338.948 58.94 337.913 51.7046 337.202C46.8884 336.715 43.7688 333.426 41.9133 329.527C40.1729 325.873 38.4096 324.309 35.2158 323.964C34.0451 323.842 32.916 323.213 31.7594 322.848C30.2694 322.36 29.8411 321.284 30.4278 319.619C32.4804 313.812 34.9512 308.473 40.4909 306.381C40.9392 306.219 41.542 306.016 41.7351 305.61C43.3198 302.239 46.7482 300.838 48.0131 297.163C48.5623 295.641 49.7181 295.742 50.8018 295.722C52.3327 295.702 53.5802 294.666 54.2582 293.387C55.0714 291.885 53.2066 291.844 52.6815 291.012C51.77 289.55 52.2171 288.392 53.5266 288.088C55.3647 287.641 57.0044 286.139 59.1772 287.174C60.4554 287.783 62.0616 287.519 60.8918 284.616C60.1607 282.789 60.8856 280.697 62.3797 279.337C64.3808 274.951 66.5737 270.809 70.8827 269.145C71.4619 268.921 71.9123 268.576 72.3031 267.967C74.3906 264.678 76.5312 261.429 78.6533 258.16C79.6075 258.079 79.9556 256.577 81.0166 256.719C81.4549 256.536 82.0156 256.638 82.2607 255.988C82.9409 253.267 84.201 250.932 85.7731 248.821C85.7752 246.465 85.6584 244.09 85.8085 241.735C86.0023 238.73 85.0029 237.958 82.6209 238.648C76.5158 240.395 70.385 242.019 64.2638 243.704C61.745 244.394 59.1445 245.958 56.7251 245.613C51.4474 244.902 46.4187 245.511 41.3903 247.217C40.2223 247.623 39.3444 247.014 38.2052 246.344C35.6601 244.861 33.7271 242.141 30.7104 241.572C28.4214 241.146 28.5416 238.08 27.9028 236.171C27.2887 234.364 29.3615 234.263 30.3462 233.938C32.7436 233.166 33.3323 231.745 32.4201 229.004C32.0934 228.03 31.758 227.076 31.3646 226.142C30.9042 225.025 31.0097 223.786 32.1095 223.543C35.2994 222.832 35.916 219.786 36.6177 216.863C37.0058 215.238 37.8449 214.203 38.9367 213.31C39.1919 213.107 39.2193 205.168 38.9609 204.985C38.7103 204.823 38.3689 204.62 38.1357 204.701C35.6006 205.614 34.3378 202.874 32.4562 201.94C32.4562 201.94 32.4557 201.94 32.455 201.94C30.7793 200.701 29.2631 199.158 27.2574 198.569C25.1421 197.92 25.0531 195.28 24.5533 193.514C24.0776 191.808 26.1743 191.91 27.1365 191.362C28.1593 190.773 29.3507 190.265 29.624 189.027C30.2381 186.265 32.0415 184.456 33.1558 182.115C33.0597 179.937 32.2753 178.564 30.2735 178.452C27.196 178.28 24.1164 177.782 21.0482 177.886C16.0618 178.055 11.0619 178.753 6.65209 175.015C6.42083 174.784 6.18838 174.554 5.95729 174.325C5.86903 174.02 5.92188 173.76 6.04281 173.521C5.68994 173.241 5.33844 172.96 4.98574 172.678C3.00192 172.658 1.32497 172.181 1.34087 169.204C0.986805 168.924 0.632736 168.642 0.277811 168.364C-0.0716401 165.602 -0.775165 162.528 3.29202 163.925C3.54448 164.012 4.00888 163.237 4.37373 162.863C5.7688 161.341 5.37265 158.994 6.21575 157.217C6.57991 156.945 6.94475 156.675 7.30891 156.403C8.19221 155.708 8.60307 154.598 9.09483 153.558C9.11159 153.54 9.13434 153.518 9.15504 153.497C9.04351 153.461 8.93849 153.434 8.80422 153.367C7.36776 149.41 8.10463 146.022 10.1646 142.509C11.5771 140.103 11.99 136.546 11.4421 133.961C10.4051 129.08 10.1239 128.341 13.44 125.06C14.1828 124.323 15.2245 123.947 15.1043 122.433C14.841 119.14 15.4351 116.545 18.7558 116.118C19.214 116.059 19.6057 115.523 19.9143 115.052C20.7429 113.785 21.6797 113.664 22.7481 114.618C23.527 115.316 24.4524 115.099 25.3345 115.189C30.0549 115.666 34.7674 116.6 39.498 115.233C40.1803 115.036 40.8677 115.414 41.4871 115.828C42.8495 115.885 44.2098 115.942 45.5722 115.999C47.1183 116.459 48.6911 116.559 50.2807 116.62C60.4801 116.996 70.6609 117.81 80.841 118.614C84.5919 118.91 88.7412 120.465 92.0152 118.695C95.3826 116.874 98.4863 117.345 101.754 117.18C101.761 117.316 101.742 117.414 101.737 117.534C101.806 117.444 101.874 117.357 101.941 117.288L101.959 117.314C102.348 116.977 102.709 116.585 103.13 116.317C103.877 115.838 104.982 115.852 104.992 114.403C105.004 112.852 104.017 112.582 103.027 112.222C102.182 111.918 101.458 111.388 100.811 110.545C97.4306 106.133 95.0332 100.17 88.9757 99.8673C88.246 99.8307 87.5418 99.0958 86.8208 98.6959C85.7071 98.0786 85.4612 97.0026 85.8481 95.7479C87.5532 90.1928 90.3314 85.7321 94.689 82.5789C97.744 80.3719 101.237 78.5142 102.478 73.9215C103.19 73.6332 103.509 72.5509 104.384 72.5895C104.654 72.4352 104.91 72.2342 105.193 72.1327C106.973 71.4829 109.604 71.2737 106.463 68.2952C106.058 67.9135 106.154 67.2029 106.352 66.6283C108.306 61.0143 111.046 56.2005 115.936 53.6727C116.759 53.2483 117.375 52.7935 118.035 51.9794C120.053 49.4922 122.566 47.5917 123.886 44.2904C124.141 43.6528 125.262 43.2061 125.989 43.1939C127.282 43.1736 128.27 42.4001 129.331 41.8052C131.358 40.6702 131.438 39.1658 129.49 37.706C128.315 36.8268 128.199 36.2157 129.562 35.6857C131.322 34.9995 132.962 33.7913 134.986 34.234C136.421 34.5487 137.697 33.6331 138.954 32.9103C139.59 32.5448 140.09 32.3193 139.66 31.0889C138.142 26.7175 139.139 25.1705 143.172 25.806C168.155 29.7591 193.252 29.9175 218.389 29.2657C229.755 28.9713 241.128 29.091 252.499 28.9814C257.773 28.9306 260.2 26.8984 260.824 22.1656C261.171 21.8712 261.519 21.5768 261.866 21.2845C262.064 21.386 262.264 21.4875 262.463 21.589C265.345 20.4622 268.492 19.7575 269.491 15.3171C268.709 15.0856 267.926 14.8521 267.013 14.5821C268.258 12.7994 269.7 12.1864 271.304 11.827C272.863 11.4778 274.407 11.0005 275.929 10.4706C276.672 10.2128 277.462 9.93662 276.754 8.52552C275.202 5.43937 276.737 4.23137 279.077 3.71769C280.642 3.37253 282.217 3.05979 283.798 2.84051C298.285 0.810154 312.859 0.684272 327.411 0.251805C358.652 -0.678099 389.861 1.21631 421.084 1.90663C452.803 2.6071 484.499 4.08324 516.199 5.52479C537.826 6.51155 559.454 7.42929 581.064 8.95003C606.553 10.7428 632.074 11.9204 657.598 12.893C667.765 13.2808 677.932 13.7862 688.089 14.4806C712.978 16.182 737.859 18.0237 762.741 19.8043C776.278 20.7728 789.816 21.7269 803.353 22.6873C807.588 22.7502 811.84 22.4214 816.045 23.3757L816.289 23.3228L816.53 23.3939C833.067 24.0558 849.603 24.8151 866.143 25.3531C891.255 26.1693 916.347 27.5074 941.44 28.9388C961.155 30.0636 980.882 30.9571 1000.61 31.8098C1025.12 32.8676 1049.63 33.7446 1074.15 34.7679C1086 35.2613 1097.86 35.7243 1109.68 36.9993C1114.05 37.4724 1118.45 37.8725 1121.62 42.3088C1124.02 45.6711 1127.51 46.7531 1130.89 47.3317C1134.49 47.949 1135.08 50.8545 1135.73 54.0625C1135.78 54.4909 1135.83 54.9213 1135.88 55.3497C1137.47 56.0481 1138.21 57.8675 1139.08 59.3029C1140.53 61.6845 1139.13 66.3684 1136.82 67.3815C1134.6 68.3541 1132.34 69.2881 1130.03 69.8749C1125.4 71.0505 1123.73 75.3814 1122.09 79.8096C1121.37 81.7262 1121.76 82.65 1123.67 82.4328C1126.24 82.1404 1128.83 81.9961 1131.41 81.7606C1148.55 80.1952 1165.64 81.0235 1182.71 83.2265C1189.14 84.0569 1190.88 86.1036 1190.95 93.6707C1190.98 96.6148 1189.84 99.4127 1190.28 102.389C1188.77 104.702 1187.55 107.175 1187.23 110.149C1187 110.693 1186.7 111.081 1186.17 111.012C1186.2 111.04 1186.23 111.069 1186.26 111.097C1186.05 114.89 1186.59 118.882 1183.81 121.913C1182.92 122.89 1182.84 124.339 1183.9 125.344C1185.82 127.159 1185.13 128.883 1184.1 130.875C1183.27 132.461 1182.09 133.456 1180.86 134.432C1179.17 135.77 1178.11 137.297 1179.73 139.618C1181.04 141.484 1180.4 143.12 1179.36 144.712C1178.29 146.352 1176.86 147.42 1175.23 148.056C1171.85 149.376 1168.43 150.59 1164.91 151.242C1161.95 151.79 1158.87 151.893 1158.01 156.384C1157.9 156.943 1157.36 157.249 1156.9 157.501C1156.13 157.917 1155.44 158.468 1155.68 159.621C1155.94 160.935 1156.9 160.979 1157.81 161.046C1165.63 161.629 1173.46 162.098 1181.24 163.229C1185.81 163.891 1190.41 164.199 1194.95 165.101C1195.18 165.33 1195.42 165.558 1195.65 165.783C1199.91 166.199 1204.29 166.776 1207.63 170.108C1210.37 172.84 1213.37 174.727 1216.55 176.438C1221.25 177.33 1225.97 178.012 1230.74 178.087C1232.37 178.113 1233.57 178.948 1233.85 180.724C1234.81 186.671 1234.86 192.559 1231.47 197.615C1230.53 199.016 1230.41 200.356 1230.73 201.879C1231.09 203.625 1232.45 203.137 1233.44 203.32C1238.24 204.153 1243.14 204.376 1247.81 206.102C1254.05 208.396 1255.28 210.609 1254.95 218.365Z" fill="white" fill-opacity="0.1"/>
</svg>
